<svg width="85" height="85" viewBox="0 0 85 85" fill="none" xmlns="http://www.w3.org/2000/svg">
<ellipse cx="42.1554" cy="42.5" rx="42.1554" ry="42.5" fill="#00B074" fill-opacity="0.15"/>
<path d="M18.6518 64.2747C21.8187 64.2747 24.4062 61.6627 24.4062 58.466V21.041H58.006V58.466C58.006 61.6627 55.4184 64.2747 52.2516 64.2747" fill="#FF4C5A"/>
<path d="M46.4972 58.4658V54.0605H12.8974V58.4658C12.8974 61.6625 15.485 64.2745 18.6518 64.2745H52.2516C49.0847 64.2745 46.4972 61.6625 46.4972 58.4658Z" fill="#E12E3B"/>
<path d="M34.718 28.4868H30.4311V30.3581H34.718V28.4868Z" fill="white"/>
<path d="M51.2088 28.4868H38.0393V30.3581H51.2088V28.4868Z" fill="#F7C604"/>
<path d="M34.718 35.1143H30.4311V36.9855H34.718V35.1143Z" fill="white"/>
<path d="M51.2088 35.1143H38.0393V36.9855H51.2088V35.1143Z" fill="#F7C604"/>
<path d="M34.718 41.7417H30.4311V43.6129H34.718V41.7417Z" fill="white"/>
<path d="M51.2088 41.7417H38.0393V43.6129H51.2088V41.7417Z" fill="#F7C604"/>
<path d="M34.718 48.3691H30.4311V50.2404H34.718V48.3691Z" fill="white"/>
<path d="M51.2088 48.3691H38.0393V50.2404H51.2088V48.3691Z" fill="#F7C604"/>
<path opacity="0.1" d="M58.006 48.6812V26.4212C57.5426 26.3432 57.0405 26.3042 56.5384 26.3042C50.3978 26.3042 45.4157 31.3332 45.4157 37.5317C45.4157 43.7302 50.3978 48.7592 56.5384 48.7592C57.0405 48.7982 57.5426 48.7592 58.006 48.6812Z" fill="#0C1E5B"/>
<path d="M60.4398 46.5373C66.5828 46.5373 71.5626 41.5105 71.5626 35.3096C71.5626 29.1088 66.5828 24.082 60.4398 24.082C54.2969 24.082 49.317 29.1088 49.317 35.3096C49.317 41.5105 54.2969 46.5373 60.4398 46.5373Z" fill="#FF5B5B"/>
<path d="M62.4089 36.089V29.1108H58.4696V36.089H55.8434L60.4392 41.5079L65.035 36.089H62.4089Z" fill="white"/>
</svg>
