<svg width="85" height="85" viewBox="0 0 85 85" fill="none" xmlns="http://www.w3.org/2000/svg">
<ellipse cx="42.1554" cy="42.5" rx="42.1554" ry="42.5" fill="#00B074" fill-opacity="0.15"/>
<path d="M41.7136 23.9522C41.1199 23.9522 40.6534 23.4819 40.6534 22.8833V20.1897C40.6534 17.2823 38.3209 14.9308 35.4795 14.9308C34.08 14.9308 32.8077 15.4866 31.7899 16.47C30.7721 17.4533 30.2632 18.7788 30.2632 20.1897V22.8833C30.2632 23.4819 29.7967 23.9522 29.2029 23.9522C28.6092 23.9522 28.1427 23.4819 28.1427 22.8833V20.1897C28.1427 18.2229 28.9061 16.3844 30.2632 14.9735C31.6626 13.5626 33.4862 12.793 35.437 12.793C39.4659 12.793 42.7314 16.0852 42.7314 20.1469V22.8406C42.7738 23.4819 42.3073 23.9522 41.7136 23.9522Z" fill="#FFD497"/>
<path d="M58.3802 59.9953H27.464L22.3325 20.0615H56.2173L58.3802 59.9953Z" fill="#FF4C5A"/>
<path d="M27.4639 59.9953L20.1271 58.7127L12.7479 59.9953L14.9532 20.0615H25.2586L27.4639 59.9953Z" fill="#E12E3B"/>
<path d="M40.9076 33.8287C36.8787 33.8287 33.6132 30.5365 33.6132 26.4747V23.7811C33.6132 23.1825 34.0797 22.7122 34.6734 22.7122C35.2672 22.7122 35.7337 23.1825 35.7337 23.7811V26.4747C35.7337 29.3821 38.0662 31.6909 40.9076 31.6909C43.749 31.6909 46.1239 29.3393 46.1239 26.4319V23.7383C46.1239 23.1397 46.5904 22.6694 47.1841 22.6694C47.7778 22.6694 48.2443 23.1397 48.2443 23.7383V26.4319C48.2443 30.5365 44.9788 33.8287 40.9076 33.8287Z" fill="white"/>
<path opacity="0.1" d="M42.8162 54.5225C42.8162 56.4892 43.3251 58.3705 44.2157 59.9952H58.4227L57.5322 43.577C56.4719 43.235 55.3693 43.064 54.2242 43.064C47.9053 43.064 42.8162 48.1946 42.8162 54.5225Z" fill="#0C1E5B"/>
<path d="M60.119 65.981C66.396 65.981 71.4846 60.8509 71.4846 54.5225C71.4846 48.1941 66.396 43.064 60.119 43.064C53.8419 43.064 48.7534 48.1941 48.7534 54.5225C48.7534 60.8509 53.8419 65.981 60.119 65.981Z" fill="#FF6966"/>
<path d="M58.9314 58.9694C58.5922 58.9694 58.2953 58.8411 58.0408 58.5846L54.4361 54.9503C53.9272 54.4373 53.9272 53.6249 54.4361 53.1546C54.945 52.6415 55.7507 52.6415 56.2172 53.1546L58.9314 55.891L64.0205 50.7603C64.5294 50.2472 65.3352 50.2472 65.8017 50.7603C66.3106 51.2734 66.3106 52.0857 65.8017 52.556L59.822 58.5846C59.5676 58.8411 59.2283 58.9694 58.9314 58.9694Z" fill="white"/>
</svg>
