 <svg width="85" height="85" viewBox="0 0 85 85" fill="none" xmlns="http://www.w3.org/2000/svg">
<ellipse cx="42.1554" cy="42.5" rx="42.1554" ry="42.5" fill="#00B074" fill-opacity="0.15"/>
<path d="M15.7544 64.2337C18.9213 64.2337 21.5088 61.6217 21.5088 58.425V21H55.1086V58.425C55.1086 61.6217 52.521 64.2337 49.3542 64.2337" fill="#FF4C5A"/>
<path d="M43.5998 58.4248V54.0195H10V58.4248C10 61.6215 12.5876 64.2334 15.7544 64.2334H49.3542C46.1873 64.2334 43.5998 61.6215 43.5998 58.4248Z" fill="#E12E3B"/>
<path d="M31.8206 28.4458H27.5337V30.317H31.8206V28.4458Z" fill="white"/>
<path d="M48.3114 28.4458H35.1419V30.317H48.3114V28.4458Z" fill="#F7C604"/>
<path d="M31.8206 35.0732H27.5337V36.9445H31.8206V35.0732Z" fill="white"/>
<path d="M48.3114 35.0732H35.1419V36.9445H48.3114V35.0732Z" fill="#F7C604"/>
<path d="M31.8206 41.7007H27.5337V43.5719H31.8206V41.7007Z" fill="white"/>
<path d="M48.3114 41.7007H35.1419V43.5719H48.3114V41.7007Z" fill="#F7C604"/>
<path d="M31.8206 48.3281H27.5337V50.1994H31.8206V48.3281Z" fill="white"/>
<path d="M48.3114 48.3281H35.1419V50.1994H48.3114V48.3281Z" fill="#F7C604"/>
<path opacity="0.1" d="M60.5903 45.5992V23.3391C60.1268 23.2612 59.6247 23.2222 59.1227 23.2222C52.982 23.2222 48 28.2512 48 34.4497C48 40.6482 52.982 45.6772 59.1227 45.6772C59.6247 45.7161 60.1268 45.6772 60.5903 45.5992Z" fill="#0C1E5B"/>
<path d="M63.024 43.4552C69.167 43.4552 74.1468 38.4285 74.1468 32.2276C74.1468 26.0268 69.167 21 63.024 21C56.8811 21 51.9012 26.0268 51.9012 32.2276C51.9012 38.4285 56.8811 43.4552 63.024 43.4552Z" fill="#FF5B5B"/>
<path d="M67.3905 27.6489L58.3109 36.8028M58.3109 27.6489L67.3905 36.8028" stroke="white" stroke-width="4"/>
<path d="M67.3905 27.6489L58.3109 36.8028M58.3109 27.6489L67.3905 36.8028" stroke="white" stroke-width="4"/>
</svg>
