<svg width="85" height="85" viewBox="0 0 85 85" fill="none" xmlns="http://www.w3.org/2000/svg">
<ellipse cx="42.1554" cy="42.5" rx="42.1554" ry="42.5" fill="#00B074" fill-opacity="0.15"/>
<path d="M35.9732 19.8311L12.6565 29.4494L35.9732 39.0678L59.2899 29.4494L35.9732 19.8311Z" fill="#FF4C5A"/>
<path d="M26.5093 23.7554L22.1207 25.5252L45.4374 35.182L49.7878 33.3737L26.5093 23.7554Z" fill="#F7C604"/>
<path d="M12.6565 29.4497V55.958L35.9732 65.5763V39.0681L12.6565 29.4497Z" fill="#E12E3B"/>
<path d="M59.2899 29.4497V55.958L35.9732 65.5763V39.0681L59.2899 29.4497Z" fill="#FF4C5A"/>
<path opacity="0.1" d="M59.2899 42.9921C58.603 42.8382 57.9161 42.7612 57.191 42.7612C51.5431 42.7612 46.9637 47.3781 46.9637 53.0721C46.9637 55.7268 47.9559 58.1506 49.5968 59.9589L59.2899 55.9576V42.9921Z" fill="#0C1E5B"/>
<path d="M45.4373 35.1818V46.3006L49.7877 44.4924V33.3735L45.4373 35.1818Z" fill="#F7C604"/>
<path d="M61.3506 62.6135C66.999 62.6135 71.5779 57.9972 71.5779 52.3026C71.5779 46.608 66.999 41.9917 61.3506 41.9917C55.7022 41.9917 51.1233 46.608 51.1233 52.3026C51.1233 57.9972 55.7022 62.6135 61.3506 62.6135Z" fill="#FF5B5B"/>
<path d="M60.2823 56.304C59.977 56.304 59.7098 56.1886 59.4809 55.9577L56.2371 52.6875C55.7792 52.2258 55.7792 51.4948 56.2371 51.0716C56.6951 50.6099 57.4201 50.6099 57.8399 51.0716L60.2823 53.5339L64.8616 48.9171C65.3196 48.4554 66.0447 48.4554 66.4644 48.9171C66.9224 49.3787 66.9224 50.1097 66.4644 50.533L61.0836 55.9577C60.8547 56.1886 60.5876 56.304 60.2823 56.304Z" fill="white"/>
<path d="M20.2124 52.3799L17.6938 47.1475L15.3278 50.2638L16.6253 50.8409V54.2266L18.7241 55.1884V51.7643L20.2124 52.3799Z" fill="#F2F5F3"/>
</svg>
